<svg preserveAspectRatio="none" width="100%" height="100%" overflow="visible" style="display: block;" viewBox="0 0 117.195 64" fill="none" xmlns="http://www.w3.org/2000/svg">
<g id="07e6481b-70ca-4f53-a899-42ccd917fa5e.svg" clip-path="url(#clip0_0_24)">
<path id="Vector" d="M76.0881 26.0922C72.5286 26.0922 69.6432 21.3873 69.6432 15.5834C69.6432 9.77962 72.5286 5.07466 76.0881 5.07466C79.6472 5.07466 82.5326 9.77962 82.5326 15.5835C82.5326 21.3873 79.6472 26.0922 76.0881 26.0922Z" fill="var(--fill-0, #FFCB22)"/>
<path id="Vector_2" d="M79.5487 64.0012H72.2273L61.4022 45.4055V64.0012H54.0389V34.1169H61.4022L72.2061 52.7123V34.1169H79.5487V64.0012Z" fill="var(--fill-0, #141631)"/>
<path id="Vector_3" d="M58.8131 30.2948H51.4917V17.8156H40.6459V30.2948H33.2825V0.410498H40.6459V12.2739H51.4917V0.410498H58.8131V30.2948Z" fill="var(--fill-0, #141631)"/>
<path id="Vector_4" d="M89.3577 15.9684C89.3577 18.883 88.8054 21.4622 87.7004 23.7063C86.5953 25.9503 85.0219 27.6813 82.9802 28.8991C80.9521 30.1032 78.6377 30.7053 76.0366 30.7053C73.435 30.7053 71.1273 30.1238 69.1134 28.9607C67.0994 27.7839 65.526 26.1077 64.3936 23.9321C63.2744 21.7564 62.6872 19.2592 62.6311 16.4405V14.7574C62.6311 11.8292 63.1767 9.24991 64.2676 7.01951C65.3723 4.77548 66.9457 3.04453 68.9878 1.82672C71.0433 0.608906 73.3793 0 75.9946 0C78.5816 0 80.8894 0.602065 82.9174 1.80619C84.945 3.01032 86.5184 4.72756 87.6376 6.95796C88.7701 9.17465 89.3436 11.7197 89.3577 14.5932V15.9684ZM81.8685 14.7164C81.8685 11.7471 81.3577 9.49619 80.337 7.96368C79.3301 6.41745 77.8826 5.64434 75.9946 5.64434C72.3021 5.64434 70.3514 8.35366 70.1415 13.7722L70.1203 15.9684C70.1203 18.8966 70.6169 21.1475 71.6098 22.7211C72.603 24.2947 74.0783 25.0815 76.0366 25.0815C77.8963 25.0815 79.3301 24.3084 80.337 22.7621C81.344 21.2159 81.8543 18.9924 81.8685 16.0916V14.7164Z" fill="var(--fill-0, #141631)"/>
<path id="Vector_5" d="M100.518 20.1555V30.2948H93.1549V0.410498H105.343C107.679 0.410498 109.742 0.834681 111.532 1.68305C113.336 2.51773 114.727 3.71501 115.707 5.27489C116.699 6.82111 117.196 8.57941 117.196 10.5498C117.196 13.4644 116.126 15.7974 113.986 17.5488C111.86 19.2866 108.938 20.1555 105.217 20.1555H100.518ZM100.518 14.5932H105.343C106.77 14.5932 107.854 14.2443 108.595 13.5465C109.35 12.8486 109.728 11.8634 109.728 10.5909C109.728 9.19518 109.343 8.08 108.574 7.2453C107.805 6.41064 106.756 5.98645 105.427 5.97274H100.518V14.5932Z" fill="var(--fill-0, #141631)"/>
<path id="Vector_6" d="M34.8769 63.9148C31.8979 63.9148 29.2617 63.3745 26.968 62.2936C24.6744 61.2127 22.9052 59.6734 21.6605 57.6752C20.4298 55.6912 19.8144 53.4267 19.8144 50.8817C19.8144 48.3366 20.4088 46.0788 21.5976 44.1085C22.8003 42.1382 24.5136 40.5987 26.7373 39.4903C28.961 38.3957 31.5134 37.821 34.3944 37.7662H36.1146C39.1075 37.7662 41.7438 38.2999 44.0233 39.3672C46.3169 40.4482 48.0864 41.9873 49.3311 43.9855C50.5758 45.9969 51.1979 48.2818 51.1979 50.8405C51.1979 53.3718 50.5829 55.6297 49.3519 57.6137C48.1214 59.5977 46.3659 61.1375 44.0864 62.2321C41.8207 63.3405 39.2194 63.9015 36.2824 63.9148H34.8769ZM36.1566 56.5876C39.1914 56.5876 41.4921 56.0881 43.0583 55.0895C44.6388 54.1041 45.4292 52.6878 45.4292 50.8405C45.4292 47.2283 42.6597 45.3195 37.1216 45.1142L34.8769 45.0938C31.884 45.0938 29.5833 45.5792 27.975 46.5509C26.3667 47.5225 25.5625 48.9658 25.5625 50.8817C25.5625 52.7015 26.3527 54.1041 27.933 55.0895C29.5134 56.0744 31.7861 56.5739 34.751 56.5876H36.1566Z" fill="var(--fill-0, #141631)"/>
<path id="Vector_7" fill-rule="evenodd" clip-rule="evenodd" d="M32.3966 11.1467C33.1386 11.4801 33.4055 12.4634 32.9927 13.343C32.9234 13.4907 32.8393 13.6261 32.7439 13.7476C33.4492 14.3304 33.8531 14.9163 34.0803 15.426C34.3513 16.0337 34.3578 16.5034 34.3542 16.6745C34.3011 19.1554 31.3717 21.9525 26.4143 20.5004C26.2027 20.4384 26.0771 20.2004 26.1337 19.9687C26.1903 19.737 26.4077 19.5994 26.6193 19.6614C31.3075 21.0346 33.5251 18.3407 33.5612 16.6543C33.5629 16.5722 33.5659 16.2518 33.3676 15.807C33.1843 15.3961 32.818 14.8538 32.0756 14.29C31.6959 14.4711 31.2743 14.4994 30.9016 14.3321C30.1595 13.9987 29.8926 13.0154 30.3055 12.1358C30.7183 11.2561 31.6545 10.8133 32.3966 11.1467Z" fill="var(--fill-0, #78B4E3)"/>
<path id="Vector_8" fill-rule="evenodd" clip-rule="evenodd" d="M31.1591 14.4138C31.0712 14.3954 30.9849 14.3677 30.9009 14.33C30.1589 13.9966 29.8919 13.0133 30.3047 12.1337C30.7176 11.2541 31.6538 10.8113 32.3958 11.1446C33.0807 11.4523 33.3608 12.3135 33.0755 13.1359C33.0517 13.2047 33.0239 13.2731 32.992 13.341C32.9227 13.4887 32.8386 13.624 32.7432 13.7455C33.4485 14.3283 33.8524 14.9142 34.0797 15.4239C34.0894 15.4457 34.0987 15.4673 34.1078 15.4887C34.3491 16.0602 34.3569 16.5001 34.3535 16.6683C34.3535 16.6697 34.3535 16.6711 34.3535 16.6725C34.3041 18.9817 31.7627 21.5649 27.4134 20.7403C27.09 20.6789 26.7567 20.5988 26.4136 20.4983C26.3976 20.4936 26.3821 20.4879 26.3671 20.4813C26.1841 20.4003 26.0807 20.1807 26.133 19.9666C26.1896 19.7349 26.4071 19.5973 26.6186 19.6593C26.6345 19.664 26.6503 19.6686 26.6662 19.6731C27.0053 19.7708 27.3313 19.8471 27.6445 19.9041C31.6276 20.6284 33.5238 18.2148 33.5604 16.6563C33.5604 16.655 33.5605 16.6535 33.5605 16.6522C33.5622 16.5701 33.5652 16.2497 33.3669 15.8049C33.3575 15.7839 33.3476 15.7625 33.3373 15.7408C33.1563 15.3618 32.8213 14.8825 32.1945 14.3811C32.1558 14.3501 32.1159 14.3191 32.0749 14.288C31.7807 14.4283 31.4613 14.4769 31.1591 14.4138ZM31.6374 15.9438C31.1866 15.9769 30.7145 15.9084 30.2566 15.7028C28.4998 14.9135 28.2542 12.8829 28.9016 11.5033C29.5491 10.1238 31.2832 8.98257 33.0402 9.77184C34.5761 10.4619 34.957 12.1007 34.5958 13.4238C35.0001 13.8912 35.2914 14.3636 35.4949 14.8199C35.8837 15.692 35.9037 16.3971 35.8971 16.7039C35.8177 20.4171 31.6634 23.613 25.9708 21.9455C24.8529 21.618 24.4153 20.4995 24.6314 19.6154C24.8574 18.69 25.8562 17.8591 27.0615 18.2122C30.9737 19.3581 32.0023 17.114 32.0167 16.6235C32.0167 16.6227 32.0166 16.6216 32.0165 16.6203C32.016 16.6166 32.0153 16.6107 32.014 16.6028C32.0091 16.5728 31.9947 16.5055 31.9517 16.4089C31.9072 16.3091 31.8182 16.1469 31.6374 15.9438Z" fill="var(--fill-0, white)"/>
<path id="Vector_9" d="M9.37346 48.788C10.1972 48.4409 10.9968 48.0399 11.7666 47.5898C12.8122 46.9777 13.8025 46.2732 14.7261 45.4965C15.7215 44.6595 16.6348 43.7315 17.4491 42.7246C18.1686 41.8356 18.8202 40.8964 19.3941 39.9107C19.8251 39.17 20.2134 38.4064 20.5618 37.6259C20.5961 37.5488 20.6298 37.4723 20.6635 37.3945C20.7156 37.2745 20.7486 37.1669 20.7118 37.0351C20.6813 36.9269 20.5961 36.81 20.4925 36.7565C20.3819 36.6993 20.2478 36.6707 20.1251 36.7092C20.0157 36.744 19.8874 36.8149 19.8403 36.9238C19.5149 37.6713 19.1545 38.4045 18.7553 39.1172C18.2309 40.0519 17.6404 40.9517 16.9826 41.8024C16.9609 41.8307 16.9393 41.8585 16.9171 41.8863C16.8955 41.9138 16.8179 42.0077 16.9088 41.8971C16.8605 41.9562 16.8135 42.0164 16.7658 42.0754C16.6711 42.1922 16.5751 42.3082 16.4778 42.4233C16.2751 42.6627 16.0666 42.8975 15.8524 43.1273C15.403 43.6102 14.9282 44.0707 14.4324 44.5083C14.1909 44.7215 13.9449 44.9288 13.6932 45.1308C13.5686 45.231 13.4427 45.3299 13.3156 45.4267C13.2864 45.4491 13.2571 45.4724 13.2273 45.494C13.233 45.4895 13.3201 45.4242 13.2578 45.4712C13.2431 45.4824 13.2285 45.4928 13.2139 45.504C13.1522 45.5501 13.09 45.5958 13.027 45.642C12.5688 45.9765 12.0958 46.2932 11.6102 46.5891C10.8201 47.0716 9.99634 47.5013 9.14589 47.8732C9.06136 47.9107 8.97617 47.9468 8.89101 47.983C8.78932 48.0258 8.69968 48.1621 8.67171 48.2614C8.64058 48.3732 8.65454 48.522 8.72004 48.6209C8.7855 48.7202 8.88337 48.8079 9.0048 48.8353C9.13953 48.8653 9.24887 48.8411 9.37346 48.788Z" fill="var(--fill-0, #78B4E3)"/>
<path id="Vector_10" d="M48.1047 35.6569C47.5503 35.1899 46.9656 34.7545 46.356 34.359C45.4732 33.7862 44.5349 33.3055 43.557 32.9081C42.3568 32.4206 41.1007 32.0978 39.8136 31.9293C38.3059 31.7322 36.7785 31.7807 35.2822 32.0425C34.0383 32.2601 32.8369 32.642 31.6655 33.0991C31.5491 33.1444 31.4335 33.1899 31.3178 33.2365C31.1983 33.2844 31.101 33.3372 31.033 33.4511C30.9733 33.5512 30.9478 33.6985 30.9847 33.8105C31.0222 33.923 31.0934 34.0325 31.204 34.0891C31.3095 34.1438 31.4551 34.1824 31.5714 34.1364C32.6704 33.6985 33.7872 33.3074 34.9478 33.0574C35.3457 32.9716 35.7462 32.9019 36.1498 32.8484C36.1079 32.854 36.0653 32.8596 36.0233 32.8652C37.0206 32.7346 38.0306 32.7048 39.0336 32.7819C39.2943 32.8018 39.5542 32.8291 39.8136 32.8633C39.7716 32.8578 39.729 32.8522 39.6871 32.8465C40.4371 32.9461 41.1789 33.104 41.9042 33.3186C42.2437 33.4187 42.5799 33.5313 42.9112 33.6556C43.0629 33.7129 43.2137 33.7732 43.3642 33.8335C43.2 33.7676 43.3534 33.8292 43.3908 33.8447C43.424 33.8584 43.4568 33.8727 43.4901 33.887C43.5682 33.9206 43.6463 33.9548 43.7241 33.9902C44.7231 34.4399 45.6727 34.9933 46.5575 35.6326C46.6518 35.7004 46.7445 35.7694 46.8368 35.8391C46.6714 35.7147 46.8418 35.8435 46.8842 35.8764C46.9261 35.9087 46.9689 35.9417 47.0101 35.9747C47.1518 36.0866 47.2923 36.201 47.4302 36.3173C47.5275 36.3994 47.6355 36.4542 47.7673 36.4542C47.8841 36.4542 48.0241 36.4032 48.1039 36.3173C48.2689 36.142 48.3067 35.8273 48.1047 35.6569Z" fill="var(--fill-0, #78B4E3)"/>
<path id="Vector_11" d="M23.0277 19.4477C23.1663 19.3818 23.3233 19.3613 23.4784 19.388C24.7808 19.6113 26.8135 20.1803 28.7032 21.7556C33.1481 25.4614 33.0019 31.7418 32.8392 33.4589C32.8126 33.7369 32.5755 33.7431 32.3225 33.8457C28.5519 35.3712 22.9006 37.6585 20.4953 38.6317C20.0402 38.8158 19.5368 38.4191 19.5902 37.9197C19.7618 36.3171 19.6455 33.4016 18.1817 29.9185C17.1399 27.4403 15.5146 25.8022 14.3406 24.855C13.8842 24.4869 13.9388 23.7823 14.4435 23.5416C17.3051 22.1772 20.1667 20.8128 23.0277 19.4477Z" fill="var(--fill-0, #78B4E3)"/>
<path id="Vector_12" d="M25.3795 19.7857L19.9805 25.3703C21.3344 25.3236 23.0004 25.4001 24.8755 25.7851C26.5364 26.1265 27.9691 26.6302 29.1387 27.1389C29.1425 26.3976 29.0681 24.4972 28.0098 22.5817C27.1059 20.9449 25.9408 20.1253 25.3795 19.7857Z" fill="var(--fill-0, #FFCB22)"/>
<path id="Vector_13" d="M14.6845 26.8563C22.0074 26.8563 27.9437 21.1437 27.9437 14.097C27.9437 7.05018 22.0074 1.33766 14.6845 1.33766C7.36166 1.33766 1.42533 7.05018 1.42533 14.097C1.42533 21.1437 7.36166 26.8563 14.6845 26.8563Z" fill="var(--fill-0, #78B4E3)"/>
<path id="Vector_14" d="M1.97155 4.55846C1.9582 4.5647 1.95757 4.57962 1.96965 4.58955C2.46798 5.00251 3.02606 5.52241 3.5746 6.15921C4.36152 7.07337 4.84588 8.02489 5.18338 8.71331C5.19102 8.72885 5.21517 8.73259 5.22531 8.71954C6.993 6.61382 8.79119 4.41791 10.5583 2.31283C10.5639 2.30537 10.5639 2.29604 10.5563 2.28858C10.2855 2.01494 9.29463 1.08211 7.64771 0.746294C6.02049 0.414204 4.81409 0.881866 4.45112 1.04169C4.43524 1.04853 4.43715 1.06843 4.45432 1.07652C4.70857 1.20276 5.25457 1.5137 5.63719 2.08895C5.92453 2.52054 5.99572 2.9142 6.01479 3.1387C6.01604 3.15549 5.99443 3.16357 5.97793 3.15301C5.73511 3.00126 5.17511 2.69467 4.41808 2.64057C3.87907 2.60201 3.46464 2.70773 3.22946 2.78733C3.2123 2.79293 3.21293 2.81345 3.22946 2.82278C3.49324 2.96706 3.99729 3.28547 4.3717 3.83584C4.65708 4.25563 4.75117 4.63934 4.78545 4.87501C4.78803 4.89305 4.76451 4.90236 4.74735 4.88993C4.54836 4.74564 4.05069 4.42726 3.34324 4.35013C2.65866 4.27553 2.16541 4.4689 1.97155 4.55846Z" fill="var(--fill-0, #78B4E3)"/>
<path id="Vector_15" d="M15.7248 14.7116C17.6505 13.0807 17.6639 10.0094 15.7548 7.85168C13.8458 5.69392 10.7371 5.26678 8.81143 6.89766C6.88573 8.52854 6.87231 11.5999 8.78138 13.7576C10.6905 15.9154 13.7991 16.3425 15.7248 14.7116Z" fill="var(--fill-0, white)"/>
<path id="Vector_16" d="M9.99501 17.8585C10.2028 17.8585 10.4018 17.68 10.3923 17.4698C10.3827 17.259 10.2175 17.0812 9.99501 17.0812C9.78714 17.0812 9.5882 17.2596 9.59771 17.4698C9.60727 17.68 9.77251 17.8585 9.99501 17.8585Z" fill="var(--fill-0, white)"/>
<path id="Vector_17" d="M9.28719 19.141C9.49506 19.141 9.69401 18.9625 9.68449 18.7523C9.67493 18.5415 9.50969 18.3636 9.28719 18.3636C9.07936 18.3636 8.88042 18.5421 8.88993 18.7523C8.89949 18.9631 9.0641 19.141 9.28719 19.141Z" fill="var(--fill-0, white)"/>
<path id="Vector_18" d="M10.995 19.0728C11.2029 19.0728 11.4018 18.8943 11.3922 18.6841C11.3827 18.4733 11.2175 18.2954 10.995 18.2954C10.7872 18.2954 10.5882 18.4739 10.5977 18.6841C10.6079 18.895 10.7725 19.0728 10.995 19.0728Z" fill="var(--fill-0, white)"/>
<path id="Vector_19" d="M4.73671 20.509C4.72337 20.4972 4.70367 20.4991 4.69411 20.5134C4.51807 20.7665 4.16337 21.1962 3.60021 21.3305C2.66139 21.5538 1.45624 20.9344 0.868916 19.6763C0.859383 19.6564 0.83205 19.6527 0.819337 19.6707C0.429698 20.2441 -0.0514735 21.1626 0.00446196 22.2634C0.143665 25.0171 3.543 26.9338 6.08615 27.4381C8.49326 27.9151 11.3053 27.0345 12.3591 26.5619C12.3782 26.5532 12.3814 26.5289 12.3655 26.5152C10.069 24.4705 7.03389 22.5544 4.73671 20.509Z" fill="var(--fill-0, #78B4E3)"/>
<path id="Vector_20" d="M8.96553 5.00837C10.1147 5.05002 11.2646 5.04877 12.4138 5.00339C12.7392 4.99034 13.0647 4.97417 13.3901 4.95426C13.5427 4.94491 13.5433 4.71173 13.3901 4.72104C12.2441 4.79069 11.0961 4.81745 9.94822 4.80004C9.62086 4.79505 9.29288 4.78637 8.96553 4.77452C8.81234 4.76958 8.81234 5.00276 8.96553 5.00837Z" fill="var(--fill-0, white)"/>
<path id="Vector_21" d="M15.4992 10.3358C15.7841 10.1441 15.774 9.64547 15.4764 9.22203C15.1789 8.79859 14.7068 8.6107 14.4218 8.80233C14.1369 8.99399 14.147 9.49261 14.4445 9.91605C14.742 10.3395 15.2142 10.5274 15.4992 10.3358Z" fill="var(--fill-0, #141631)"/>
<path id="Vector_22" d="M16.6636 17.5105C16.3795 16.7611 16.8632 15.9689 17.2217 15.9384C18.0862 15.8656 18.3423 17.0037 18.3449 17.781C17.8242 17.9956 17.1956 17.6001 16.6636 17.5105Z" fill="var(--fill-0, #F7848F)"/>
<path id="Vector_23" fill-rule="evenodd" clip-rule="evenodd" d="M21.0183 17.2169C21.0696 17.3075 21.0361 17.4217 20.9434 17.4718C20.5485 17.6857 19.8615 17.9903 18.9597 18.0551C17.8225 18.1368 16.9428 17.7945 16.5141 17.5916C16.4188 17.5465 16.3789 17.4343 16.425 17.3411C16.4711 17.2478 16.5858 17.2088 16.6811 17.2539C17.0775 17.4416 17.8873 17.756 18.9316 17.681C19.7599 17.6214 20.3924 17.3415 20.7577 17.1436C20.8504 17.0934 20.967 17.1263 21.0183 17.2169Z" fill="var(--fill-0, white)"/>
<path id="Vector_24" d="M24.4567 9.41311C25.3622 8.37162 24.4473 6.1551 22.4132 4.4623C20.3792 2.76955 17.9962 2.24158 17.0908 3.28306C16.1853 4.32453 17.1002 6.54109 19.1343 8.23385C21.1683 9.92661 23.5513 10.4546 24.4567 9.41311Z" fill="var(--fill-0, white)"/>
<path id="Vector_25" d="M15.9012 2.84427C15.8694 2.68569 15.8103 2.5439 15.8122 2.37847C15.8141 2.22673 15.8503 2.07437 15.9832 1.98482C16.2667 1.7939 16.6881 1.8194 17.0085 1.8735C17.3002 1.92263 17.583 2.01529 17.8519 2.13718C17.9542 2.1832 18.0439 2.03457 17.9409 1.98793C17.4693 1.77462 16.9302 1.62039 16.4052 1.6776C16.233 1.69626 16.0537 1.73544 15.9056 1.82872C15.7524 1.92574 15.6749 2.06629 15.6476 2.24228C15.6266 2.37598 15.6368 2.51094 15.6641 2.64278C15.6812 2.72673 15.7143 2.80633 15.7314 2.88967C15.7531 2.99912 15.9228 2.9531 15.9012 2.84427Z" fill="var(--fill-0, white)"/>
<path id="Vector_26" d="M20.3175 7.3403C20.5424 7.14988 20.4815 6.72079 20.1817 6.38192C19.8819 6.04301 19.4565 5.92262 19.2318 6.11304C19.0069 6.30346 19.0678 6.73251 19.3676 7.07142C19.6674 7.41033 20.0927 7.53068 20.3175 7.3403Z" fill="var(--fill-0, #141631)"/>
<path id="Vector_27" d="M10.6737 51.5217C11.7314 50.6776 12.1579 49.4537 11.7047 48.6608C11.2509 47.8666 10.0216 47.6921 8.83042 48.2527C8.68804 48.32 8.63717 48.4979 8.72553 48.6284L10.6737 51.5217Z" fill="var(--fill-0, #78B4E3)"/>
<path id="Vector_28" d="M48.1854 36.2104C48.0964 36.3417 47.9115 36.3678 47.7922 36.2633C46.6115 35.2297 46.1685 33.907 46.7532 33.1868C47.3305 32.476 48.7734 32.5196 50.144 33.323L48.1854 36.2104Z" fill="var(--fill-0, #78B4E3)"/>
<path id="Vector_29" d="M14.1309 34.6839C14.8823 34.0475 15.0603 33.0442 14.5284 32.4431C13.9965 31.8419 12.9561 31.8704 12.2047 32.5068C11.4533 33.1432 11.2753 34.1465 11.8073 34.7476C12.3391 35.3488 13.3795 35.3203 14.1309 34.6839Z" fill="var(--fill-0, #78B4E3)"/>
<path id="Vector_30" d="M19.6453 37C19.581 37.365 19.2257 38.2065 19.0058 38.6797C18.9187 38.8669 18.8266 39.0354 18.7338 39.1872C19.0154 39.3078 19.2969 39.4285 19.5785 39.5491C19.7616 39.2861 20.0063 38.9067 20.4532 38.6785C21.1282 38.3333 21.439 38.2438 21.7733 38.1144C21.01 37.9534 20.4086 37.1611 19.6453 37Z" fill="var(--fill-0, #78B4E3)"/>
<path id="Vector_31" d="M19.6779 39.4089C19.9163 39.1601 20.257 38.8561 20.747 38.5992C21.1576 38.384 21.4081 38.2758 21.7742 38.116C21.6801 37.5513 21.2968 37.0862 20.7756 36.9145C20.2296 36.7348 19.7529 36.95 19.6461 37.0016C19.6493 37.2466 19.6524 37.4916 19.6556 37.7373C19.6633 38.2939 19.6709 38.8511 19.6779 39.4089Z" fill="var(--fill-0, #78B4E3)"/>
<path id="Vector_32" fill-rule="evenodd" clip-rule="evenodd" d="M13.7403 33.7392C13.709 33.9389 13.5003 34.1098 13.2742 34.1209C12.0698 34.1802 11.2914 33.9754 10.7933 33.7098C10.2944 33.4439 10.101 33.1299 10.0362 33.0122C9.09685 31.307 10.7533 27.8504 16.0239 26.182C16.2489 26.1108 16.4627 26.2045 16.5015 26.3914C16.5404 26.5782 16.3895 26.7875 16.1645 26.8587C11.1803 28.4365 10.1562 31.4429 10.7947 32.6021C10.8258 32.6585 10.9507 32.8766 11.3158 33.0713C11.6817 33.2663 12.3132 33.4507 13.3875 33.3978C13.6136 33.3867 13.7716 33.5395 13.7403 33.7392Z" fill="var(--fill-0, #78B4E3)"/>
</g>
<defs>
<clipPath id="clip0_0_24">
<rect width="117.195" height="64" fill="white"/>
</clipPath>
</defs>
</svg>
